<svg width="154" height="25" fill="none" xmlns="http://www.w3.org/2000/svg"><path d="M7.964 8.704c0-.33-.112-.614-.336-.853a1.099 1.099 0 00-.834-.359c-1.045 0-2.132 1.113-3.26 3.339-1.045 2.011-1.568 3.61-1.568 4.796 0 1.073.365 1.608 1.095 1.608 1.028 0 2.057-1.039 3.085-3.116a22.719 22.719 0 001.643-4.5c.116-.462.175-.767.175-.915zm3.01 6.231v.05a.193.193 0 00-.024.074c-.348.84-.805 1.558-1.369 2.151-.713.726-1.46 1.088-2.24 1.088-.896 0-1.343-.535-1.343-1.607 0-.28.024-.552.074-.816-1.111 1.616-2.322 2.423-3.634 2.423-.78 0-1.393-.305-1.84-.914C.198 16.856 0 16.189 0 15.38c0-1.648.722-3.47 2.165-5.465 1.543-2.11 3.11-3.165 4.703-3.165.68 0 1.253.297 1.718.89.132-.494.398-.741.796-.741.763 0 1.145.132 1.145.395 0 .05-.19.643-.572 1.78-1.478 4.402-2.215 6.933-2.215 7.592 0 .314.115.47.348.47.464 0 1-.42 1.605-1.261.606-.84.917-1.261.933-1.261.233 0 .349.107.349.321zm12.643-9.891c0-1.384-.336-2.378-1.007-2.979-.673-.602-1.69-.895-3.05-.878-1.061 0-1.592.23-1.592.692v7.047c.614.1 1.061.148 1.344.148 2.887-.015 4.321-1.36 4.305-4.03zm2.937 0c0 3.297-2.249 4.945-6.744 4.945-.582 0-1.195-.032-1.842-.098v4.402c0 1.55.274 2.44.821 2.67.033.017.39.124 1.07.322.398.099.589.23.573.395-.017.198-.15.297-.399.297h-6.769c-.248 0-.381-.099-.397-.297-.017-.164.173-.296.572-.395.68-.198 1.036-.305 1.07-.322.547-.23.82-1.12.82-2.67V4.154c0-1.55-.273-2.44-.82-2.67-.034-.017-.39-.124-1.07-.322-.399-.099-.59-.23-.572-.396.016-.198.149-.296.397-.296h7.292c1.726 0 3.119.354 4.18 1.063 1.212.79 1.818 1.961 1.818 3.511zm6.162 12.636c-.017.198-.15.297-.399.297h-5.375c-.25 0-.382-.099-.398-.297-.017-.131.174-.247.572-.346.514-.115.871-.238 1.07-.37.199-.132.307-.495.324-1.089V2.893c0-.444-.042-.738-.125-.878-.083-.14-.332-.21-.746-.21-.631 0-.946-.099-.946-.297 0-.213.199-.362.597-.445.963-.198 1.908-.47 2.838-.815.115-.034.207-.05.273-.05.166 0 .265.095.299.284.033.19.05.59.05 1.2v12.61c0 1.666.107 2.556.323 2.671.116.067.473.174 1.07.322.398.116.589.247.573.395zm7.341-3.005v-2.756c-1.228.23-2.149.509-2.762.836-.996.559-1.493 1.33-1.493 2.314 0 .524.153.947.46 1.267.307.32.725.48 1.257.48a2.76 2.76 0 001.767-.616c.514-.41.77-.919.77-1.525zm4.554 1.596c-.448 1.27-1.228 1.904-2.34 1.904-1.194 0-1.924-.6-2.189-1.805-1.262 1.204-2.539 1.805-3.833 1.805-.83 0-1.485-.238-1.966-.715-.481-.477-.722-1.127-.722-1.95 0-1.496.813-2.614 2.44-3.354.928-.411 2.28-.732 4.056-.963.05-1.562-.075-2.573-.374-3.034-.248-.411-.812-.608-1.692-.592-.73.017-1.211.247-1.444.693L36.2 9.496c-.166.445-.523.668-1.071.668-.73 0-1.094-.313-1.094-.94 0-.808.505-1.434 1.517-1.88.78-.33 1.66-.494 2.638-.494 2.688.016 4.032.937 4.032 2.763v6.093c0 .888.249 1.324.746 1.307.332 0 .61-.177.834-.532.224-.354.386-.531.486-.531a.36.36 0 01.261.111c.075.074.095.145.062.21zm9.765.009c-1.079 1.395-2.406 2.092-3.982 2.092-1.643 0-2.953-.52-3.932-1.56-.98-1.04-1.469-2.396-1.469-4.065 0-1.668.544-3.072 1.63-4.212 1.087-1.14 2.468-1.702 4.144-1.686.763 0 1.51.165 2.24.495.913.412 1.369.956 1.369 1.632 0 .643-.332.964-.996.964-.398 0-.709-.189-.933-.568-.224-.38-.435-.759-.634-1.138-.299-.395-.714-.594-1.245-.594-1.095 0-1.924.53-2.488 1.587-.432.843-.647 1.868-.647 3.074 0 1.322.265 2.439.796 3.347.63 1.124 1.551 1.686 2.762 1.686.697 0 1.36-.25 1.991-.75.133-.117.539-.543 1.22-1.276.083-.084.157-.126.223-.126.15 0 .225.125.225.374 0 .25-.092.49-.274.723zm8.979-5.725c-.1-1.959-.888-2.93-2.364-2.914-1.593.017-2.547 1.154-2.863 3.413h3.111c1.427 0 2.132-.167 2.116-.499zm2.364 1.042c0 .182-.091.289-.274.322h-7.416a7.64 7.64 0 00-.025.52c0 1.352.249 2.447.747 3.288.63 1.038 1.575 1.558 2.837 1.558.83 0 1.534-.181 2.115-.544.3-.198.738-.602 1.319-1.212a.31.31 0 01.224-.098c.215 0 .324.098.324.296 0 .066-.025.14-.075.222-.946 1.6-2.44 2.39-4.48 2.375-1.626-.018-2.936-.54-3.931-1.57-.996-1.03-1.494-2.346-1.494-3.945 0-1.648.49-3.041 1.468-4.179 1.046-1.203 2.381-1.797 4.007-1.78 1.244 0 2.281.37 3.111 1.113 1.012.89 1.526 2.101 1.543 3.634zm14.583-9.989a.939.939 0 01-.262.655.831.831 0 01-.634.284c-.398 0-.714-.288-.946-.865-.232-.577-.539-.866-.92-.866-.863 0-1.544.505-2.041 1.514-.183.348-.473 1.217-.872 2.607l-.67 2.333h2.462c.216 0 .325.102.325.306 0 .34-.184.51-.549.51h-2.438l-2.489 9.32c-.581 2.17-1.153 3.772-1.717 4.808C68.522 24.07 67.236 25 65.693 25a2.54 2.54 0 01-1.543-.494c-.448-.33-.672-.767-.672-1.311 0-.742.337-1.113 1.007-1.113.46 0 .746.181.86.544.033.132.05.486.05 1.063 0 .38.175.57.524.57.7 0 1.317-.627 1.85-1.878.233-.543.524-1.473.873-2.79l3.05-11.505h-2.59c-.148 0-.223-.094-.223-.28 0-.358.157-.536.474-.536h2.488c.663-2.127 1.31-3.684 1.94-4.673C74.86.865 76.195 0 77.788 0c.581 0 1.12.124 1.618.37.597.297.896.71.896 1.238zm2.391 7.912c0-1.352-.456-2.028-1.369-2.028-1.045 0-2.008 1.097-2.886 3.29-.747 1.862-1.12 3.42-1.12 4.673 0 1.435.488 2.151 1.468 2.151 1.028 0 1.974-1.112 2.837-3.338.713-1.88 1.07-3.462 1.07-4.748zm1.816 1.311c0 1.715-.513 3.338-1.543 4.871-1.16 1.731-2.563 2.597-4.205 2.597-1.078 0-1.908-.429-2.489-1.286-.531-.742-.796-1.665-.796-2.77 0-1.697.523-3.33 1.568-4.896 1.178-1.747 2.58-2.62 4.205-2.62 1.079 0 1.908.428 2.49 1.285.514.759.77 1.698.77 2.82zm10.078-2.745c0 .297-.088.568-.262.816-.174.247-.403.37-.685.37-.281 0-.497-.172-.647-.518-.15-.346-.348-.52-.596-.52-.913 0-2.407 3.248-4.48 9.743h-1.941c.498-1.665.995-3.338 1.493-5.02.78-2.654 1.17-4.146 1.17-4.476 0-.28-.125-.42-.373-.42-.449 0-.872.272-1.27.816-.133.165-.398.618-.796 1.36-.1.198-.24.297-.423.297-.25 0-.373-.1-.373-.297l.024-.1c.216-.823.639-1.573 1.27-2.249.712-.742 1.468-1.113 2.264-1.113.879 0 1.319.503 1.319 1.509 0 .313-.058.7-.174 1.162-.117.395-.224.783-.324 1.162 1.26-2.555 2.447-3.833 3.558-3.833.366 0 .665.128.897.384.232.255.349.564.349.927zm22.72 9.594c-.016.199-.149.298-.398.298h-6.57c-.249 0-.382-.1-.398-.297-.017-.165.174-.297.572-.396a28.59 28.59 0 001.07-.321c.548-.231.821-1.12.821-2.671V2.622l-6.421 15.034c-.148.346-.265.52-.348.52-.083 0-.223-.223-.423-.668L99.687 4.896a12.436 12.436 0 00-.896-1.706l.15 11.103c.016.791.05 1.327.1 1.608.115.543.356.898.722 1.063.032.016.389.123 1.069.321.398.1.589.231.573.396-.017.198-.149.297-.399.297h-5.325c-.249 0-.382-.1-.398-.297-.017-.165.174-.297.572-.396a28.59 28.59 0 001.07-.321c.365-.165.606-.536.721-1.113.067-.28.1-.8.1-1.558l.125-12.166c-.266-.214-.656-.429-1.17-.643a19.754 19.754 0 01-1.07-.322c-.399-.098-.589-.23-.572-.395.016-.198.149-.297.398-.297h2.986c1.128.017 1.775.07 1.941.16.165.092.415.524.747 1.3l5.301 12.338L112.156.841c.099-.247.323-.37.671-.37h4.082c.249 0 .382.098.398.296.016.165-.174.297-.572.395-.681.198-1.037.306-1.07.322-.548.231-.822 1.122-.822 2.67v10.139c0 1.55.274 2.44.822 2.67.033.017.389.124 1.07.322.398.1.588.231.572.396zm9.507-5.057c0-1.371-.225-2.494-.673-3.371-.58-1.14-1.485-1.71-2.712-1.71-1.228 0-2.132.587-2.712 1.76-.448.876-.672 1.991-.672 3.347 0 1.321.224 2.42.672 3.296.597 1.124 1.501 1.686 2.712 1.686 1.227 0 2.132-.562 2.712-1.686.448-.875.673-1.983.673-3.322zm2.388-.148c0 1.685-.547 3.09-1.642 4.213-1.095 1.124-2.489 1.685-4.181 1.685-1.692 0-3.061-.529-4.105-1.586-1.047-1.058-1.569-2.437-1.569-4.138 0-1.685.548-3.073 1.643-4.164 1.094-1.09 2.489-1.635 4.181-1.635 1.608 0 2.957.537 4.044 1.61 1.086 1.074 1.629 2.412 1.629 4.015zm21.478 5.206c-.017.198-.15.296-.399.296h-5.375c-.249 0-.382-.098-.398-.296-.016-.131.174-.246.572-.346.514-.115.875-.242 1.083-.381.207-.14.311-1.024.311-2.652v-3.207c0-1.003-.124-1.735-.373-2.195-.332-.625-.971-.938-1.917-.938-.796 0-1.477.243-2.04.728-.565.486-.846 1.081-.846 1.789v3.823c.016.986.024 1.529.024 1.628.034.592.133.937.299 1.036.165.099.523.213 1.07.345.398.099.588.222.573.37-.017.198-.15.296-.398.296h-5.376c-.249 0-.382-.098-.398-.296-.017-.131.174-.246.572-.346.514-.115.874-.242 1.083-.381.207-.14.311-1.024.311-2.652v-3.207c0-1.003-.124-1.735-.374-2.195-.331-.625-.97-.938-1.916-.938-.797 0-1.476.243-2.04.728-.564.486-.846 1.081-.846 1.789v3.823c0 1.66.107 2.549.323 2.664.116.066.472.173 1.07.32.398.115.589.247.573.395-.018.198-.15.296-.398.296h-5.376c-.249 0-.382-.099-.398-.297-.017-.131.182-.238.596-.321.515-.1.872-.235 1.071-.408.199-.173.299-1.06.299-2.659V9.57c0-.446-.041-.738-.125-.878-.083-.14-.332-.21-.747-.21-.63 0-.945-.1-.945-.297 0-.214.198-.363.596-.445a19.02 19.02 0 002.833-.817c.15-.032.249-.049.299-.049.149 0 .24.108.274.322.015.148.032.569.049 1.26.364-.47.898-.85 1.603-1.143a5.623 5.623 0 012.174-.439c1.724 0 2.801.635 3.232 1.905.994-1.27 2.385-1.905 4.175-1.905 1.359 0 2.295.37 2.809 1.11.563.807.844 2.073.844 3.8v2.517c0 .937.009 1.48.025 1.628.034.593.133.938.299 1.037.166.098.523.213 1.071.345.397.099.588.222.572.37zm2.225-1.116a.582.582 0 00-.203-.028h-.085v.386h.137a.322.322 0 00.19-.05c.046-.032.069-.085.069-.157s-.036-.123-.108-.15zm-.637 1.065v-1.326h.371c.166 0 .257.002.276.003.105.007.193.03.263.068.119.065.178.17.178.317 0 .111-.031.192-.094.24a.437.437 0 01-.231.09.445.445 0 01.189.077c.079.063.118.162.118.298v.118a.255.255 0 00.013.078l.012.037h-.334a.98.98 0 01-.022-.183.57.57 0 00-.022-.162.16.16 0 00-.098-.098.39.39 0 00-.119-.021l-.077-.005h-.074v.47h-.349zm-.18-1.359a.954.954 0 00-.288.693.96.96 0 00.293.707c.194.194.428.29.703.29a.954.954 0 00.701-.292.967.967 0 00.291-.705.955.955 0 00-.29-.693.948.948 0 00-.702-.299c-.277 0-.513.1-.708.3zm1.551 1.552a1.172 1.172 0 01-.843.338 1.17 1.17 0 01-.857-.346 1.152 1.152 0 01-.348-.85c0-.35.126-.641.376-.872.235-.217.512-.325.829-.325.332 0 .616.116.851.35.235.234.353.517.353.846 0 .34-.12.626-.361.86z" fill="#8491A0"/></svg>