<svg width="18" height="18" fill="none" xmlns="http://www.w3.org/2000/svg"><path d="M16.65 0H1.35C.63 0 0 .543 0 1.266v15.468C0 17.457.63 18 1.35 18h15.3c.72 0 1.35-.543 1.35-1.266V1.266C18 .633 17.37 0 16.65 0zM5.31 15.467h-2.7V6.874h2.7v8.593zM3.96 5.608c-.9 0-1.53-.724-1.53-1.538 0-.814.72-1.537 1.53-1.537s1.53.723 1.53 1.537c.09.905-.63 1.538-1.53 1.538zm11.34 9.86h-2.7v-4.161c0-.995 0-2.262-1.35-2.262s-1.62 1.086-1.62 2.262v4.25h-2.7V6.966h2.52V8.14c.36-.724 1.26-1.357 2.52-1.357 2.7 0 3.24 1.809 3.24 4.07v4.613h.09z" fill="#0077B5"/></svg>